<?xml version="1.0" encoding="UTF-8"?>
<svg id="Livello_1" xmlns="http://www.w3.org/2000/svg" version="1.1" viewBox="0 0 100 125">
  <!-- Generator: Adobe Illustrator 29.0.0, SVG Export Plug-In . SVG Version: 2.1.0 Build 186)  -->
  <path d="M50,37.9c-13.6,0-24.6,11-24.6,24.6s11,24.6,24.6,24.6,24.6-11,24.6-24.6-11-24.6-24.6-24.6ZM50,85.1c-12.4,0-22.6-10.1-22.6-22.6s10.1-22.6,22.6-22.6,22.6,10.1,22.6,22.6-10.1,22.6-22.6,22.6ZM49,23.5v9.8c0,.6.4,1,1,1s1-.4,1-1v-9.8c0-.6-.4-1-1-1s-1,.4-1,1ZM29.6,29.2l4.9,8.5c.2.3.5.5.9.5s.3,0,.5-.1c.5-.3.6-.9.4-1.4l-4.9-8.5c-.3-.5-.9-.6-1.4-.4-.5.3-.6.9-.4,1.4ZM15.7,43.9l8.5,4.9c.2,0,.3.1.5.1.3,0,.7-.2.9-.5.3-.5.1-1.1-.4-1.4l-8.5-4.9c-.5-.3-1.1-.1-1.4.4s-.1,1.1.4,1.4ZM11,63.5h9.8c.6,0,1-.4,1-1s-.4-1-1-1h-9.8c-.6,0-1,.4-1,1s.4,1,1,1ZM15.4,82.5c.2.3.5.5.9.5s.3,0,.5-.1l8.5-4.9c.5-.3.6-.9.4-1.4-.3-.5-.9-.6-1.4-.4l-8.5,4.9c-.5.3-.6.9-.4,1.4ZM30.5,97.3c.3,0,.7-.2.9-.5l4.9-8.5c.3-.5.1-1.1-.4-1.4-.5-.3-1.1-.1-1.4.4l-4.9,8.5c-.3.5-.1,1.1.4,1.4.2,0,.3.1.5.1ZM50,102.5c.6,0,1-.4,1-1v-9.8c0-.6-.4-1-1-1s-1,.4-1,1v9.8c0,.6.4,1,1,1ZM70,97.1c.5-.3.6-.9.4-1.4l-4.9-8.5c-.3-.5-.9-.6-1.4-.4-.5.3-.6.9-.4,1.4l4.9,8.5c.2.3.5.5.9.5s.3,0,.5-.1ZM84.3,81.1l-8.5-4.9c-.5-.3-1.1-.1-1.4.4-.3.5-.1,1.1.4,1.4l8.5,4.9c.2,0,.3.1.5.1.3,0,.7-.2.9-.5.3-.5.1-1.1-.4-1.4ZM89,61.5h-9.8c-.6,0-1,.4-1,1s.4,1,1,1h9.8c.6,0,1-.4,1-1s-.4-1-1-1ZM84.6,42.5c-.3-.5-.9-.6-1.4-.4l-8.5,4.9c-.5.3-.6.9-.4,1.4.2.3.5.5.9.5s.3,0,.5-.1l8.5-4.9c.5-.3.6-.9.4-1.4ZM70,27.9c-.5-.3-1.1-.1-1.4.4l-4.9,8.5c-.3.5-.1,1.1.4,1.4.2,0,.3.1.5.1.3,0,.7-.2.9-.5l4.9-8.5c.3-.5.1-1.1-.4-1.4Z"/>
</svg>